<?xml version="1.0" encoding="utf-8" standalone="no"?>
<!DOCTYPE svg PUBLIC "-//W3C//DTD SVG 1.1//EN"
  "http://www.w3.org/Graphics/SVG/1.1/DTD/svg11.dtd">
<svg height="314.668906pt" version="1.1" viewBox="0 0 903.966641 314.668906" width="903.966641pt" xmlns="http://www.w3.org/2000/svg" xmlns:xlink="http://www.w3.org/1999/xlink">
 <metadata>
  <rdf:RDF xmlns:cc="http://creativecommons.org/ns#" xmlns:dc="http://purl.org/dc/elements/1.1/" xmlns:rdf="http://www.w3.org/1999/02/22-rdf-syntax-ns#">
   <cc:Work>
    <dc:type rdf:resource="http://purl.org/dc/dcmitype/StillImage"/>
    <dc:date>2021-09-02T09:06:48.660640</dc:date>
    <dc:format>image/svg+xml</dc:format>
    <dc:creator>
     <cc:Agent>
      <dc:title>Matplotlib v3.4.3, https://matplotlib.org/</dc:title>
     </cc:Agent>
    </dc:creator>
   </cc:Work>
  </rdf:RDF>
 </metadata>
 <defs>
  <style type="text/css">*{stroke-linecap:butt;stroke-linejoin:round;}</style>
 </defs>
 <g id="figure_1">
  <g id="patch_1">
   <path d="M 0 314.668906 
L 903.966641 314.668906 
L 903.966641 0 
L 0 0 
z
" style="fill:none;"/>
  </g>
  <g id="axes_1">
   <g id="patch_2">
    <path d="M 59.766641 279 
L 896.766641 279 
L 896.766641 7.2 
L 59.766641 7.2 
z
" style="fill:#ffffff;"/>
   </g>
   <g id="matplotlib.axis_1">
    <g id="xtick_1">
     <g id="line2d_1">
      <defs>
       <path d="M 0 0 
L 0 9 
" id="me3c891450b" style="stroke:#000000;stroke-width:1.875;"/>
      </defs>
      <g>
       <use style="stroke:#000000;stroke-width:1.875;" x="97.812095" xlink:href="#me3c891450b" y="279"/>
      </g>
     </g>
     <g id="text_1">
      <!-- 0 -->
      <g transform="translate(92.563033 304.037422)scale(0.165 -0.165)">
       <defs>
        <path d="M 2034 4250 
Q 1547 4250 1301 3770 
Q 1056 3291 1056 2328 
Q 1056 1369 1301 889 
Q 1547 409 2034 409 
Q 2525 409 2770 889 
Q 3016 1369 3016 2328 
Q 3016 3291 2770 3770 
Q 2525 4250 2034 4250 
z
M 2034 4750 
Q 2819 4750 3233 4129 
Q 3647 3509 3647 2328 
Q 3647 1150 3233 529 
Q 2819 -91 2034 -91 
Q 1250 -91 836 529 
Q 422 1150 422 2328 
Q 422 3509 836 4129 
Q 1250 4750 2034 4750 
z
" id="DejaVuSans-30" transform="scale(0.015625)"/>
       </defs>
       <use xlink:href="#DejaVuSans-30"/>
      </g>
     </g>
    </g>
    <g id="xtick_2">
     <g id="line2d_2">
      <g>
       <use style="stroke:#000000;stroke-width:1.875;" x="251.531103" xlink:href="#me3c891450b" y="279"/>
      </g>
     </g>
     <g id="text_2">
      <!-- 20 -->
      <g transform="translate(241.032978 304.037422)scale(0.165 -0.165)">
       <defs>
        <path d="M 1228 531 
L 3431 531 
L 3431 0 
L 469 0 
L 469 531 
Q 828 903 1448 1529 
Q 2069 2156 2228 2338 
Q 2531 2678 2651 2914 
Q 2772 3150 2772 3378 
Q 2772 3750 2511 3984 
Q 2250 4219 1831 4219 
Q 1534 4219 1204 4116 
Q 875 4013 500 3803 
L 500 4441 
Q 881 4594 1212 4672 
Q 1544 4750 1819 4750 
Q 2544 4750 2975 4387 
Q 3406 4025 3406 3419 
Q 3406 3131 3298 2873 
Q 3191 2616 2906 2266 
Q 2828 2175 2409 1742 
Q 1991 1309 1228 531 
z
" id="DejaVuSans-32" transform="scale(0.015625)"/>
       </defs>
       <use xlink:href="#DejaVuSans-32"/>
       <use x="63.623047" xlink:href="#DejaVuSans-30"/>
      </g>
     </g>
    </g>
    <g id="xtick_3">
     <g id="line2d_3">
      <g>
       <use style="stroke:#000000;stroke-width:1.875;" x="405.250112" xlink:href="#me3c891450b" y="279"/>
      </g>
     </g>
     <g id="text_3">
      <!-- 40 -->
      <g transform="translate(394.751987 304.037422)scale(0.165 -0.165)">
       <defs>
        <path d="M 2419 4116 
L 825 1625 
L 2419 1625 
L 2419 4116 
z
M 2253 4666 
L 3047 4666 
L 3047 1625 
L 3713 1625 
L 3713 1100 
L 3047 1100 
L 3047 0 
L 2419 0 
L 2419 1100 
L 313 1100 
L 313 1709 
L 2253 4666 
z
" id="DejaVuSans-34" transform="scale(0.015625)"/>
       </defs>
       <use xlink:href="#DejaVuSans-34"/>
       <use x="63.623047" xlink:href="#DejaVuSans-30"/>
      </g>
     </g>
    </g>
    <g id="xtick_4">
     <g id="line2d_4">
      <g>
       <use style="stroke:#000000;stroke-width:1.875;" x="558.96912" xlink:href="#me3c891450b" y="279"/>
      </g>
     </g>
     <g id="text_4">
      <!-- 60 -->
      <g transform="translate(548.470995 304.037422)scale(0.165 -0.165)">
       <defs>
        <path d="M 2113 2584 
Q 1688 2584 1439 2293 
Q 1191 2003 1191 1497 
Q 1191 994 1439 701 
Q 1688 409 2113 409 
Q 2538 409 2786 701 
Q 3034 994 3034 1497 
Q 3034 2003 2786 2293 
Q 2538 2584 2113 2584 
z
M 3366 4563 
L 3366 3988 
Q 3128 4100 2886 4159 
Q 2644 4219 2406 4219 
Q 1781 4219 1451 3797 
Q 1122 3375 1075 2522 
Q 1259 2794 1537 2939 
Q 1816 3084 2150 3084 
Q 2853 3084 3261 2657 
Q 3669 2231 3669 1497 
Q 3669 778 3244 343 
Q 2819 -91 2113 -91 
Q 1303 -91 875 529 
Q 447 1150 447 2328 
Q 447 3434 972 4092 
Q 1497 4750 2381 4750 
Q 2619 4750 2861 4703 
Q 3103 4656 3366 4563 
z
" id="DejaVuSans-36" transform="scale(0.015625)"/>
       </defs>
       <use xlink:href="#DejaVuSans-36"/>
       <use x="63.623047" xlink:href="#DejaVuSans-30"/>
      </g>
     </g>
    </g>
    <g id="xtick_5">
     <g id="line2d_5">
      <g>
       <use style="stroke:#000000;stroke-width:1.875;" x="712.688128" xlink:href="#me3c891450b" y="279"/>
      </g>
     </g>
     <g id="text_5">
      <!-- 80 -->
      <g transform="translate(702.190003 304.037422)scale(0.165 -0.165)">
       <defs>
        <path d="M 2034 2216 
Q 1584 2216 1326 1975 
Q 1069 1734 1069 1313 
Q 1069 891 1326 650 
Q 1584 409 2034 409 
Q 2484 409 2743 651 
Q 3003 894 3003 1313 
Q 3003 1734 2745 1975 
Q 2488 2216 2034 2216 
z
M 1403 2484 
Q 997 2584 770 2862 
Q 544 3141 544 3541 
Q 544 4100 942 4425 
Q 1341 4750 2034 4750 
Q 2731 4750 3128 4425 
Q 3525 4100 3525 3541 
Q 3525 3141 3298 2862 
Q 3072 2584 2669 2484 
Q 3125 2378 3379 2068 
Q 3634 1759 3634 1313 
Q 3634 634 3220 271 
Q 2806 -91 2034 -91 
Q 1263 -91 848 271 
Q 434 634 434 1313 
Q 434 1759 690 2068 
Q 947 2378 1403 2484 
z
M 1172 3481 
Q 1172 3119 1398 2916 
Q 1625 2713 2034 2713 
Q 2441 2713 2670 2916 
Q 2900 3119 2900 3481 
Q 2900 3844 2670 4047 
Q 2441 4250 2034 4250 
Q 1625 4250 1398 4047 
Q 1172 3844 1172 3481 
z
" id="DejaVuSans-38" transform="scale(0.015625)"/>
       </defs>
       <use xlink:href="#DejaVuSans-38"/>
       <use x="63.623047" xlink:href="#DejaVuSans-30"/>
      </g>
     </g>
    </g>
    <g id="xtick_6">
     <g id="line2d_6">
      <g>
       <use style="stroke:#000000;stroke-width:1.875;" x="866.407136" xlink:href="#me3c891450b" y="279"/>
      </g>
     </g>
     <g id="text_6">
      <!-- 100 -->
      <g transform="translate(850.659949 304.037422)scale(0.165 -0.165)">
       <defs>
        <path d="M 794 531 
L 1825 531 
L 1825 4091 
L 703 3866 
L 703 4441 
L 1819 4666 
L 2450 4666 
L 2450 531 
L 3481 531 
L 3481 0 
L 794 0 
L 794 531 
z
" id="DejaVuSans-31" transform="scale(0.015625)"/>
       </defs>
       <use xlink:href="#DejaVuSans-31"/>
       <use x="63.623047" xlink:href="#DejaVuSans-30"/>
       <use x="127.246094" xlink:href="#DejaVuSans-30"/>
      </g>
     </g>
    </g>
   </g>
   <g id="matplotlib.axis_2">
    <g id="ytick_1">
     <g id="line2d_7">
      <defs>
       <path d="M 0 0 
L -9 0 
" id="m13523208b3" style="stroke:#000000;stroke-width:1.875;"/>
      </defs>
      <g>
       <use style="stroke:#000000;stroke-width:1.875;" x="59.766641" xlink:href="#m13523208b3" y="266.656206"/>
      </g>
     </g>
     <g id="text_7">
      <!-- −1.0 -->
      <g transform="translate(7.2 272.924917)scale(0.165 -0.165)">
       <defs>
        <path d="M 678 2272 
L 4684 2272 
L 4684 1741 
L 678 1741 
L 678 2272 
z
" id="DejaVuSans-2212" transform="scale(0.015625)"/>
        <path d="M 684 794 
L 1344 794 
L 1344 0 
L 684 0 
L 684 794 
z
" id="DejaVuSans-2e" transform="scale(0.015625)"/>
       </defs>
       <use xlink:href="#DejaVuSans-2212"/>
       <use x="83.789062" xlink:href="#DejaVuSans-31"/>
       <use x="147.412109" xlink:href="#DejaVuSans-2e"/>
       <use x="179.199219" xlink:href="#DejaVuSans-30"/>
      </g>
     </g>
    </g>
    <g id="ytick_2">
     <g id="line2d_8">
      <g>
       <use style="stroke:#000000;stroke-width:1.875;" x="59.766641" xlink:href="#m13523208b3" y="204.880791"/>
      </g>
     </g>
     <g id="text_8">
      <!-- −0.5 -->
      <g transform="translate(7.2 211.149502)scale(0.165 -0.165)">
       <defs>
        <path d="M 691 4666 
L 3169 4666 
L 3169 4134 
L 1269 4134 
L 1269 2991 
Q 1406 3038 1543 3061 
Q 1681 3084 1819 3084 
Q 2600 3084 3056 2656 
Q 3513 2228 3513 1497 
Q 3513 744 3044 326 
Q 2575 -91 1722 -91 
Q 1428 -91 1123 -41 
Q 819 9 494 109 
L 494 744 
Q 775 591 1075 516 
Q 1375 441 1709 441 
Q 2250 441 2565 725 
Q 2881 1009 2881 1497 
Q 2881 1984 2565 2268 
Q 2250 2553 1709 2553 
Q 1456 2553 1204 2497 
Q 953 2441 691 2322 
L 691 4666 
z
" id="DejaVuSans-35" transform="scale(0.015625)"/>
       </defs>
       <use xlink:href="#DejaVuSans-2212"/>
       <use x="83.789062" xlink:href="#DejaVuSans-30"/>
       <use x="147.412109" xlink:href="#DejaVuSans-2e"/>
       <use x="179.199219" xlink:href="#DejaVuSans-35"/>
      </g>
     </g>
    </g>
    <g id="ytick_3">
     <g id="line2d_9">
      <g>
       <use style="stroke:#000000;stroke-width:1.875;" x="59.766641" xlink:href="#m13523208b3" y="143.105376"/>
      </g>
     </g>
     <g id="text_9">
      <!-- 0.0 -->
      <g transform="translate(21.026484 149.374087)scale(0.165 -0.165)">
       <use xlink:href="#DejaVuSans-30"/>
       <use x="63.623047" xlink:href="#DejaVuSans-2e"/>
       <use x="95.410156" xlink:href="#DejaVuSans-30"/>
      </g>
     </g>
    </g>
    <g id="ytick_4">
     <g id="line2d_10">
      <g>
       <use style="stroke:#000000;stroke-width:1.875;" x="59.766641" xlink:href="#m13523208b3" y="81.329961"/>
      </g>
     </g>
     <g id="text_10">
      <!-- 0.5 -->
      <g transform="translate(21.026484 87.598672)scale(0.165 -0.165)">
       <use xlink:href="#DejaVuSans-30"/>
       <use x="63.623047" xlink:href="#DejaVuSans-2e"/>
       <use x="95.410156" xlink:href="#DejaVuSans-35"/>
      </g>
     </g>
    </g>
    <g id="ytick_5">
     <g id="line2d_11">
      <g>
       <use style="stroke:#000000;stroke-width:1.875;" x="59.766641" xlink:href="#m13523208b3" y="19.554545"/>
      </g>
     </g>
     <g id="text_11">
      <!-- 1.0 -->
      <g transform="translate(21.026484 25.823256)scale(0.165 -0.165)">
       <use xlink:href="#DejaVuSans-31"/>
       <use x="63.623047" xlink:href="#DejaVuSans-2e"/>
       <use x="95.410156" xlink:href="#DejaVuSans-30"/>
      </g>
     </g>
    </g>
   </g>
   <g id="line2d_12">
    <path clip-path="url(#pfc535fbd4f)" d="M 97.812095 143.105376 
L 105.498046 123.605764 
L 113.183996 104.594934 
L 120.869946 86.549421 
L 128.555897 69.921558 
L 136.241847 55.12814 
L 143.927798 42.539999 
L 151.613748 32.472654 
L 159.299698 25.17847 
L 166.985649 20.840276 
L 174.671599 19.566822 
L 182.35755 21.390022 
L 190.0435 26.264182 
L 197.729451 34.067122 
L 205.415401 44.60325 
L 213.101351 57.60847 
L 220.787302 72.756776 
L 228.473252 89.668452 
L 236.159203 107.919625 
L 243.845153 127.052749 
L 251.531103 146.588282 
L 259.217054 166.036482 
L 266.903004 184.909885 
L 274.588955 202.735429 
L 282.274905 219.066235 
L 289.960856 233.492989 
L 297.646806 245.65408 
L 305.332756 255.244629 
L 313.018707 262.024262 
L 320.704657 265.823042 
L 328.390608 266.545736 
L 336.076558 264.174234 
L 343.762508 258.767981 
L 351.448459 250.4625 
L 359.134409 239.465969 
L 366.82036 226.053995 
L 374.50631 210.562834 
L 382.19226 193.380774 
L 389.878211 174.938489 
L 397.564161 155.698269 
L 405.250112 136.142332 
L 412.936062 116.760991 
L 420.622013 98.040008 
L 428.307963 80.448642 
L 435.993913 64.427855 
L 443.679864 50.379223 
L 451.365814 38.654851 
L 459.051765 29.548712 
L 466.737715 23.289021 
L 474.423665 20.032681 
L 482.109616 19.861316 
L 489.795566 22.779242 
L 497.481517 28.713287 
L 505.167467 37.514725 
L 512.853417 48.962925 
L 520.539368 62.770931 
L 528.225318 78.592627 
L 535.911269 96.031411 
L 543.597219 114.650171 
L 551.28317 133.982314 
L 558.96912 153.543022 
L 566.65507 172.842099 
L 574.341021 191.395786 
L 582.026971 208.739008 
L 589.712922 224.437044 
L 597.398872 238.09639 
L 605.084822 249.374667 
L 612.770773 257.989165 
L 620.456723 263.72395 
L 628.142674 266.435273 
L 635.828624 266.055162 
L 643.514575 262.593147 
L 651.200525 256.136015 
L 658.886475 246.845623 
L 666.572426 234.95485 
L 674.258376 220.761747 
L 681.944327 204.62209 
L 689.630277 186.940436 
L 697.316227 168.159997 
L 705.002178 148.751533 
L 712.688128 129.201422 
L 720.374079 109.999949 
L 728.060029 91.628309 
L 735.745979 74.547007 
L 743.43193 59.18421 
L 751.11788 45.925007 
L 758.803831 35.101756 
L 766.489781 26.985756 
L 774.175732 21.780442 
L 781.861682 19.616302 
L 789.547632 20.547564 
L 797.233583 24.550944 
L 804.919533 31.526023 
L 812.605484 41.297982 
L 820.291434 53.62188 
L 827.977384 68.188798 
L 835.663335 84.63359 
L 843.349285 102.544062 
L 851.035236 121.471252 
L 858.721186 140.94073 
" style="fill:none;stroke:#1f77b4;stroke-linecap:square;stroke-width:2.25;"/>
   </g>
   <g id="line2d_13">
    <path clip-path="url(#pfc535fbd4f)" d="M 97.812095 19.554545 
L 105.498046 21.103031 
L 113.183996 25.709664 
L 120.869946 33.258974 
L 128.555897 43.561738 
L 136.241847 56.359692 
L 143.927798 71.332031 
L 151.613748 88.103474 
L 159.299698 106.253614 
L 166.985649 125.327495 
L 174.671599 144.847002 
L 182.35755 164.322837 
L 190.0435 183.266843 
L 197.729451 201.20415 
L 205.415401 217.685123 
L 213.101351 232.296674 
L 220.787302 244.672505 
L 228.473252 254.502428 
L 236.159203 261.540044 
L 243.845153 265.608928 
L 251.531103 266.607102 
L 259.217054 264.509541 
L 266.903004 259.368834 
L 274.588955 251.313809 
L 282.274905 240.546409 
L 289.960856 227.336523 
L 297.646806 212.015253 
L 305.332756 194.966688 
L 313.018707 176.618153 
L 320.704657 157.429573 
L 328.390608 137.881882 
L 336.076558 118.465182 
L 343.762508 99.66612 
L 351.448459 81.955922 
L 359.134409 65.778516 
L 366.82036 51.539365 
L 374.50631 39.595481 
L 382.19226 30.246205 
L 389.878211 23.725895 
L 397.564161 20.197985 
L 405.250112 19.750912 
L 412.936062 22.395883 
L 420.622013 28.0666 
L 428.307963 36.62091 
L 435.993913 47.84439 
L 443.679864 61.455714 
L 451.365814 77.113741 
L 459.051765 94.425886 
L 466.737715 112.958249 
L 474.423665 132.246289 
L 482.109616 151.806526 
L 489.795566 171.148715 
L 497.481517 189.787904 
L 505.167467 207.256932 
L 512.853417 223.117917 
L 520.539368 236.97329 
L 528.225318 248.475734 
L 535.911269 257.336939 
L 543.597219 263.334781 
L 551.28317 266.318918 
L 558.96912 266.214523 
L 566.65507 263.024247 
L 574.341021 256.828036 
L 582.026971 247.78123 
L 589.712922 236.110581 
L 597.398872 222.108638 
L 605.084822 206.126372 
L 612.770773 188.564404 
L 620.456723 169.862947 
L 628.142674 150.490778 
L 635.828624 130.933367 
L 643.514575 111.681179 
L 651.200525 93.21668 
L 658.886475 76.002711 
L 666.572426 60.470752 
L 674.258376 47.010137 
L 681.944327 35.958272 
L 689.630277 27.59219 
L 697.316227 22.121604 
L 705.002178 19.683625 
L 712.688128 20.339385 
L 720.374079 24.072447 
L 728.060029 30.789219 
L 735.745979 40.321341 
L 743.43193 52.429881 
L 751.11788 66.811316 
L 758.803831 83.105164 
L 766.489781 100.902993 
L 774.175732 119.758682 
L 781.861682 139.199587 
L 789.547632 158.738394 
L 797.233583 177.885452 
L 804.919533 196.160584 
L 812.605484 213.105818 
L 820.291434 228.296402 
L 827.977384 241.351566 
L 835.663335 251.944052 
L 843.349285 259.808366 
L 851.035236 264.747361 
L 858.721186 266.637243 
" style="fill:none;stroke:#ff7f0e;stroke-linecap:square;stroke-width:2.25;"/>
   </g>
   <g id="line2d_14">
    <path clip-path="url(#pfc535fbd4f)" d="M 97.812095 143.105376 
L 105.498046 135.315016 
L 113.183996 127.55566 
L 120.869946 119.858189 
L 128.555897 112.253234 
L 136.241847 104.771063 
L 143.927798 97.441457 
L 151.613748 90.293577 
L 159.299698 83.355875 
L 166.985649 76.65596 
L 174.671599 70.2205 
L 182.35755 64.075109 
L 190.0435 58.244236 
L 197.729451 52.751085 
L 205.415401 47.617521 
L 213.101351 42.86398 
L 220.787302 38.509372 
L 228.473252 34.571032 
L 236.159203 31.064626 
L 243.845153 28.004122 
L 251.531103 25.401686 
L 259.217054 23.267687 
L 266.903004 21.610609 
L 274.588955 20.437057 
L 282.274905 19.751685 
L 289.960856 19.557233 
L 297.646806 19.854475 
L 305.332756 20.642224 
L 313.018707 21.917343 
L 320.704657 23.674758 
L 328.390608 25.907482 
L 336.076558 28.606624 
L 343.762508 31.761442 
L 351.448459 35.359385 
L 359.134409 39.386117 
L 366.82036 43.825642 
L 374.50631 48.660278 
L 382.19226 53.870776 
L 389.878211 59.43639 
L 397.564161 65.334999 
L 405.250112 71.543126 
L 412.936062 78.036026 
L 420.622013 84.787907 
L 428.307963 91.771878 
L 435.993913 98.960143 
L 443.679864 106.324071 
L 451.365814 113.834405 
L 459.051765 121.461233 
L 466.737715 129.174168 
L 474.423665 136.942575 
L 482.109616 144.735509 
L 489.795566 152.521955 
L 497.481517 160.270896 
L 505.167467 167.951552 
L 512.853417 175.533325 
L 520.539368 182.986046 
L 528.225318 190.280021 
L 535.911269 197.386282 
L 543.597219 204.276518 
L 551.28317 210.923282 
L 558.96912 217.300174 
L 566.65507 223.381783 
L 574.341021 229.143919 
L 582.026971 234.563612 
L 589.712922 239.619351 
L 597.398872 244.290973 
L 605.084822 248.559936 
L 612.770773 252.409175 
L 620.456723 255.823419 
L 628.142674 258.789101 
L 635.828624 261.294367 
L 643.514575 263.32928 
L 651.200525 264.885719 
L 658.886475 265.957505 
L 666.572426 266.540382 
L 674.258376 266.632008 
L 681.944327 266.232036 
L 689.630277 265.342042 
L 697.316227 263.965584 
L 705.002178 262.108133 
L 712.688128 259.777068 
L 720.374079 256.98169 
L 728.060029 253.733119 
L 735.745979 250.04425 
L 743.43193 245.929825 
L 751.11788 241.406142 
L 758.803831 236.491288 
L 766.489781 231.204777 
L 774.175732 225.567612 
L 781.861682 219.602312 
L 789.547632 213.332577 
L 797.233583 206.783304 
L 804.919533 199.980658 
L 812.605484 192.951662 
L 820.291434 185.724241 
L 827.977384 178.327256 
L 835.663335 170.790102 
L 843.349285 163.14271 
L 851.035236 155.415634 
L 858.721186 147.639507 
" style="fill:none;stroke:#2ca02c;stroke-linecap:square;stroke-width:2.25;"/>
   </g>
   <g id="line2d_15">
    <path clip-path="url(#pfc535fbd4f)" d="M 97.812095 19.554545 
L 105.498046 19.800392 
L 113.183996 20.536967 
L 120.869946 21.761332 
L 128.555897 23.46862 
L 136.241847 25.652032 
L 143.927798 28.302873 
L 151.613748 31.410604 
L 159.299698 34.962852 
L 166.985649 38.94548 
L 174.671599 43.342646 
L 182.35755 48.13683 
L 190.0435 53.308968 
L 197.729451 58.838476 
L 205.415401 64.70335 
L 213.101351 70.880237 
L 220.787302 77.344572 
L 228.473252 84.070604 
L 236.159203 91.031595 
L 243.845153 98.199811 
L 251.531103 105.546757 
L 259.217054 113.043164 
L 266.903004 120.659223 
L 274.588955 128.364599 
L 282.274905 136.12864 
L 289.960856 143.92046 
L 297.646806 151.709022 
L 305.332756 159.463357 
L 313.018707 167.15258 
L 320.704657 174.746114 
L 328.390608 182.213711 
L 336.076558 189.52568 
L 343.762508 196.652892 
L 351.448459 203.567014 
L 359.134409 210.240488 
L 366.82036 216.646807 
L 374.50631 222.760451 
L 382.19226 228.55708 
L 389.878211 234.013616 
L 397.564161 239.108378 
L 405.250112 243.821071 
L 412.936062 248.13293 
L 420.622013 252.026819 
L 428.307963 255.487221 
L 435.993913 258.500381 
L 443.679864 261.054279 
L 451.365814 263.138783 
L 459.051765 264.745578 
L 466.737715 265.868273 
L 474.423665 266.502405 
L 482.109616 266.645455 
L 489.795566 266.296833 
L 497.481517 265.457947 
L 505.167467 264.132133 
L 512.853417 262.324656 
L 520.539368 260.04271 
L 528.225318 257.295398 
L 535.911269 254.093627 
L 543.597219 250.450143 
L 551.28317 246.379476 
L 558.96912 241.897784 
L 566.65507 237.022924 
L 574.341021 231.774295 
L 582.026971 226.172809 
L 589.712922 220.240708 
L 597.398872 214.001659 
L 605.084822 207.480406 
L 612.770773 200.703005 
L 620.456723 193.696381 
L 628.142674 186.488365 
L 635.828624 179.107751 
L 643.514575 171.5838 
L 651.200525 163.946568 
L 658.886475 156.226394 
L 666.572426 148.453943 
L 674.258376 140.660265 
L 681.944327 132.876318 
L 689.630277 125.133021 
L 697.316227 117.461307 
L 705.002178 109.891651 
L 712.688128 102.454119 
L 720.374079 95.178426 
L 728.060029 88.09347 
L 735.745979 81.227399 
L 743.43193 74.607629 
L 751.11788 68.260422 
L 758.803831 62.211126 
L 766.489781 56.483764 
L 774.175732 51.101099 
L 781.861682 46.084626 
L 789.547632 41.454265 
L 797.233583 37.22842 
L 804.919533 33.423969 
L 812.605484 30.056025 
L 820.291434 27.137966 
L 827.977384 24.681445 
L 835.663335 22.696225 
L 843.349285 21.190187 
L 851.035236 20.169353 
L 858.721186 19.637776 
" style="fill:none;stroke:#d62728;stroke-linecap:square;stroke-width:2.25;"/>
   </g>
   <g id="patch_3">
    <path d="M 59.766641 279 
L 59.766641 7.2 
" style="fill:none;stroke:#000000;stroke-linecap:square;stroke-linejoin:miter;stroke-width:1.875;"/>
   </g>
   <g id="patch_4">
    <path d="M 896.766641 279 
L 896.766641 7.2 
" style="fill:none;stroke:#000000;stroke-linecap:square;stroke-linejoin:miter;stroke-width:1.875;"/>
   </g>
   <g id="patch_5">
    <path d="M 59.766641 279 
L 896.766641 279 
" style="fill:none;stroke:#000000;stroke-linecap:square;stroke-linejoin:miter;stroke-width:1.875;"/>
   </g>
   <g id="patch_6">
    <path d="M 59.766641 7.2 
L 896.766641 7.2 
" style="fill:none;stroke:#000000;stroke-linecap:square;stroke-linejoin:miter;stroke-width:1.875;"/>
   </g>
   <g id="legend_1">
    <g id="patch_7">
     <path d="M 71.316641 270.75 
L 170.989531 270.75 
Q 174.289531 270.75 174.289531 267.45 
L 174.289531 172.224375 
Q 174.289531 168.924375 170.989531 168.924375 
L 71.316641 168.924375 
Q 68.016641 168.924375 68.016641 172.224375 
L 68.016641 267.45 
Q 68.016641 270.75 71.316641 270.75 
z
" style="fill:#ffffff;opacity:0.8;stroke:#cccccc;stroke-linejoin:miter;stroke-width:1.5;"/>
    </g>
    <g id="line2d_16">
     <path d="M 74.616641 182.286797 
L 107.616641 182.286797 
" style="fill:none;stroke:#1f77b4;stroke-linecap:square;stroke-width:2.25;"/>
    </g>
    <g id="line2d_17"/>
    <g id="text_12">
     <!-- dim 4 -->
     <g transform="translate(120.816641 188.061797)scale(0.165 -0.165)">
      <defs>
       <path d="M 2906 2969 
L 2906 4863 
L 3481 4863 
L 3481 0 
L 2906 0 
L 2906 525 
Q 2725 213 2448 61 
Q 2172 -91 1784 -91 
Q 1150 -91 751 415 
Q 353 922 353 1747 
Q 353 2572 751 3078 
Q 1150 3584 1784 3584 
Q 2172 3584 2448 3432 
Q 2725 3281 2906 2969 
z
M 947 1747 
Q 947 1113 1208 752 
Q 1469 391 1925 391 
Q 2381 391 2643 752 
Q 2906 1113 2906 1747 
Q 2906 2381 2643 2742 
Q 2381 3103 1925 3103 
Q 1469 3103 1208 2742 
Q 947 2381 947 1747 
z
" id="DejaVuSans-64" transform="scale(0.015625)"/>
       <path d="M 603 3500 
L 1178 3500 
L 1178 0 
L 603 0 
L 603 3500 
z
M 603 4863 
L 1178 4863 
L 1178 4134 
L 603 4134 
L 603 4863 
z
" id="DejaVuSans-69" transform="scale(0.015625)"/>
       <path d="M 3328 2828 
Q 3544 3216 3844 3400 
Q 4144 3584 4550 3584 
Q 5097 3584 5394 3201 
Q 5691 2819 5691 2113 
L 5691 0 
L 5113 0 
L 5113 2094 
Q 5113 2597 4934 2840 
Q 4756 3084 4391 3084 
Q 3944 3084 3684 2787 
Q 3425 2491 3425 1978 
L 3425 0 
L 2847 0 
L 2847 2094 
Q 2847 2600 2669 2842 
Q 2491 3084 2119 3084 
Q 1678 3084 1418 2786 
Q 1159 2488 1159 1978 
L 1159 0 
L 581 0 
L 581 3500 
L 1159 3500 
L 1159 2956 
Q 1356 3278 1631 3431 
Q 1906 3584 2284 3584 
Q 2666 3584 2933 3390 
Q 3200 3197 3328 2828 
z
" id="DejaVuSans-6d" transform="scale(0.015625)"/>
       <path id="DejaVuSans-20" transform="scale(0.015625)"/>
      </defs>
      <use xlink:href="#DejaVuSans-64"/>
      <use x="63.476562" xlink:href="#DejaVuSans-69"/>
      <use x="91.259766" xlink:href="#DejaVuSans-6d"/>
      <use x="188.671875" xlink:href="#DejaVuSans-20"/>
      <use x="220.458984" xlink:href="#DejaVuSans-34"/>
     </g>
    </g>
    <g id="line2d_18">
     <path d="M 74.616641 206.505703 
L 107.616641 206.505703 
" style="fill:none;stroke:#ff7f0e;stroke-linecap:square;stroke-width:2.25;"/>
    </g>
    <g id="line2d_19"/>
    <g id="text_13">
     <!-- dim 5 -->
     <g transform="translate(120.816641 212.280703)scale(0.165 -0.165)">
      <use xlink:href="#DejaVuSans-64"/>
      <use x="63.476562" xlink:href="#DejaVuSans-69"/>
      <use x="91.259766" xlink:href="#DejaVuSans-6d"/>
      <use x="188.671875" xlink:href="#DejaVuSans-20"/>
      <use x="220.458984" xlink:href="#DejaVuSans-35"/>
     </g>
    </g>
    <g id="line2d_20">
     <path d="M 74.616641 230.724609 
L 107.616641 230.724609 
" style="fill:none;stroke:#2ca02c;stroke-linecap:square;stroke-width:2.25;"/>
    </g>
    <g id="line2d_21"/>
    <g id="text_14">
     <!-- dim 6 -->
     <g transform="translate(120.816641 236.499609)scale(0.165 -0.165)">
      <use xlink:href="#DejaVuSans-64"/>
      <use x="63.476562" xlink:href="#DejaVuSans-69"/>
      <use x="91.259766" xlink:href="#DejaVuSans-6d"/>
      <use x="188.671875" xlink:href="#DejaVuSans-20"/>
      <use x="220.458984" xlink:href="#DejaVuSans-36"/>
     </g>
    </g>
    <g id="line2d_22">
     <path d="M 74.616641 254.943516 
L 107.616641 254.943516 
" style="fill:none;stroke:#d62728;stroke-linecap:square;stroke-width:2.25;"/>
    </g>
    <g id="line2d_23"/>
    <g id="text_15">
     <!-- dim 7 -->
     <g transform="translate(120.816641 260.718516)scale(0.165 -0.165)">
      <defs>
       <path d="M 525 4666 
L 3525 4666 
L 3525 4397 
L 1831 0 
L 1172 0 
L 2766 4134 
L 525 4134 
L 525 4666 
z
" id="DejaVuSans-37" transform="scale(0.015625)"/>
      </defs>
      <use xlink:href="#DejaVuSans-64"/>
      <use x="63.476562" xlink:href="#DejaVuSans-69"/>
      <use x="91.259766" xlink:href="#DejaVuSans-6d"/>
      <use x="188.671875" xlink:href="#DejaVuSans-20"/>
      <use x="220.458984" xlink:href="#DejaVuSans-37"/>
     </g>
    </g>
   </g>
  </g>
 </g>
 <defs>
  <clipPath id="pfc535fbd4f">
   <rect height="271.8" width="837" x="59.766641" y="7.2"/>
  </clipPath>
 </defs>
</svg>
